<svg width="24" height="24" viewBox="0 0 24 24" fill="none" xmlns="http://www.w3.org/2000/svg">
<path d="M8.70711 3.29289C8.31658 2.90237 7.68342 2.90237 7.29289 3.29289C6.90237 3.68342 6.90237 4.31658 7.29289 4.70711L8.70711 3.29289ZM16 12L16.7071 12.7071L17.4142 12L16.7071 11.2929L16 12ZM7.29289 19.2929C6.90237 19.6834 6.90237 20.3166 7.29289 20.7071C7.68342 21.0976 8.31658 21.0976 8.70711 20.7071L7.29289 19.2929ZM7.29289 4.70711L15.2929 12.7071L16.7071 11.2929L8.70711 3.29289L7.29289 4.70711ZM15.2929 11.2929L7.29289 19.2929L8.70711 20.7071L16.7071 12.7071L15.2929 11.2929Z" fill="#496ADC"/>
</svg>
